<?xml version="1.0" encoding="UTF-8"?>
<svg version="1.1" xmlns="http://www.w3.org/2000/svg" width="489" height="80">
<path d="M0 0 C1.30157803 -0.00339833 1.30157803 -0.00339833 2.62945056 -0.00686532 C5.53648888 -0.01319442 8.44348045 -0.01237665 11.3505249 -0.0115509 C13.43515585 -0.0145431 15.51978623 -0.01794577 17.60441589 -0.02172852 C23.26776959 -0.03056727 28.93110819 -0.0329066 34.59446812 -0.0335443 C39.32345195 -0.0344939 44.05243227 -0.03817286 48.78141475 -0.0417164 C59.94068375 -0.04986076 71.09994468 -0.05230068 82.25921631 -0.05158997 C93.76589136 -0.05098941 105.27251949 -0.06153694 116.77918267 -0.07733363 C126.66129789 -0.09041606 136.5433978 -0.09577355 146.42552161 -0.09513456 C152.3262012 -0.09487974 158.22683911 -0.09772167 164.12751007 -0.10831261 C169.67935827 -0.11800518 175.23112505 -0.11806476 180.78297615 -0.11079597 C182.81747367 -0.10975153 184.85197629 -0.1121047 186.88646507 -0.11815643 C189.67041754 -0.12589924 192.45409046 -0.12121638 195.23803711 -0.11352539 C196.03718292 -0.11866895 196.83632874 -0.12381252 197.6596911 -0.12911195 C207.66507324 -0.06831285 217.81177863 2.16723128 225.45501709 8.99308777 C232.65543542 16.8150159 234.34697119 24.67582521 234.37298584 35.13371277 C233.78123823 42.59487827 229.81505792 50.18855954 224.15423584 55.03215027 C215.18101876 61.16384861 206.09838144 63.15334712 195.33392334 61.89543152 C186.58592194 60.17022806 179.35359404 54.37241021 174.37298584 47.13371277 C168.56495493 36.91958945 170.38106255 28.10409817 173.37298584 17.13371277 C163.80298584 17.13371277 154.23298584 17.13371277 144.37298584 17.13371277 C147.34298584 17.46371277 150.31298584 17.79371277 153.37298584 18.13371277 C154.53170909 20.45115927 154.47510478 21.73563874 154.43548584 24.30949402 C154.42775146 25.13771667 154.42001709 25.96593933 154.41204834 26.81925964 C154.38618089 28.55884558 154.36014159 30.29842896 154.33392334 32.03800964 C154.32618896 32.87009949 154.31845459 33.70218933 154.31048584 34.55949402 C154.2930835 35.6951178 154.2930835 35.6951178 154.27532959 36.85368347 C154.33475855 39.60980383 154.33475855 39.60980383 155.37298584 44.13371277 C158.67298584 44.79371277 161.97298584 45.45371277 165.37298584 46.13371277 C165.50691441 56.3122842 165.50691441 56.3122842 164.37298584 60.13371277 C162.16527779 60.21536772 159.95668159 60.27319764 157.74798584 60.32121277 C155.9033374 60.3734198 155.9033374 60.3734198 154.02142334 60.42668152 C148.89706179 60.01519638 145.64855758 58.48014961 142.12298584 54.75871277 C136.77917697 46.74299946 137.16326104 37.51294792 136.81048584 28.19621277 C136.76730225 27.13080261 136.72411865 26.06539246 136.67962646 24.96769714 C136.57424163 22.35649508 136.47317858 19.74511921 136.37298584 17.13371277 C131.75298584 17.13371277 127.13298584 17.13371277 122.37298584 17.13371277 C123.36298584 18.61871277 123.36298584 18.61871277 124.37298584 20.13371277 C124.61349487 22.01303101 124.61349487 22.01303101 124.60003662 24.14616394 C124.59981003 25.34706917 124.59981003 25.34706917 124.59957886 26.57223511 C124.58925629 27.43170242 124.57893372 28.29116974 124.56829834 29.17668152 C124.56546844 30.06027847 124.56263855 30.94387543 124.5597229 31.85424805 C124.54852681 34.67670731 124.52342335 37.49884939 124.49798584 40.32121277 C124.4879553 42.23461964 124.47882958 44.14803149 124.47064209 46.06144714 C124.44858935 50.75232459 124.41406346 55.4429649 124.37298584 60.13371277 C122.08157298 60.18755798 119.78980396 60.22643364 117.49798584 60.25871277 C116.22181396 60.28191589 114.94564209 60.30511902 113.63079834 60.32902527 C110.37298584 60.13371277 110.37298584 60.13371277 108.37298584 58.13371277 C107.44486084 58.62871277 106.51673584 59.12371277 105.56048584 59.63371277 C99.35630866 62.27111602 92.34877028 62.0471339 85.99798584 59.94621277 C81.24530143 57.86630589 78.43559463 54.70930512 75.56048584 50.44621277 C73.4274166 44.49607224 73.37452585 38.66064309 75.93548584 32.82121277 C78.92531077 27.70023236 82.45752463 24.99313645 88.14251709 23.31730652 C94.99103436 21.91947052 100.67361315 22.20690204 107.37298584 24.13371277 C106.7139783 21.05834423 105.83430801 19.05635711 104.37298584 16.13371277 C87.04798584 16.62871277 87.04798584 16.62871277 69.37298584 17.13371277 C69.37298584 21.42371277 69.37298584 25.71371277 69.37298584 30.13371277 C68.71298584 32.44371277 68.05298584 34.75371277 67.37298584 37.13371277 C62.42298584 37.13371277 57.47298584 37.13371277 52.37298584 37.13371277 C50.43755631 32.29513895 50.17825716 29.94013761 50.31048584 24.88371277 C50.36415544 22.63425648 50.39360104 20.38371478 50.37298584 18.13371277 C49.26171925 16.79469485 49.26171925 16.79469485 46.43157959 17.03605652 C45.23661865 17.04765808 44.04165771 17.05925964 42.81048584 17.07121277 C39.62392334 17.10215027 39.62392334 17.10215027 36.37298584 17.13371277 C36.37298584 24.39371277 36.37298584 31.65371277 36.37298584 39.13371277 C35.05298584 38.80371277 33.73298584 38.47371277 32.37298584 38.13371277 C28.97553193 37.8350355 25.57763414 37.62699453 22.17376709 37.41496277 C19.37298584 37.13371277 19.37298584 37.13371277 18.37298584 36.13371277 C18.21678029 34.7204333 18.12242411 33.30016687 18.05657959 31.87980652 C18.01468506 31.02580261 17.97279053 30.17179871 17.92962646 29.29191589 C17.89031006 28.39408386 17.85099365 27.49625183 17.81048584 26.57121277 C17.76730225 25.66951355 17.72411865 24.76781433 17.67962646 23.83879089 C17.573206 21.60396121 17.47256103 19.36885791 17.37298584 17.13371277 C12.75298584 17.13371277 8.13298584 17.13371277 3.37298584 17.13371277 C3.37298584 23.73371277 3.37298584 30.33371277 3.37298584 37.13371277 C0.29066069 38.67487534 -2.84151584 38.00740345 -6.18951416 37.75871277 C-6.8875415 37.71488464 -7.58556885 37.67105652 -8.30474854 37.62590027 C-13.49746026 37.26326667 -13.49746026 37.26326667 -14.62701416 36.13371277 C-14.7271768 34.05883427 -14.75782665 31.98053777 -14.75982666 29.90324402 C-14.76111572 28.62513855 -14.76240479 27.34703308 -14.76373291 26.03019714 C-14.76163818 25.35948181 -14.75954346 24.68876648 -14.75738525 23.99772644 C-14.75208171 21.9720138 -14.75730602 19.94652743 -14.76373291 17.92082214 C-14.76244385 16.63627136 -14.76115479 15.35172058 -14.75982666 14.02824402 C-14.75869873 12.85108826 -14.7575708 11.6739325 -14.75640869 10.46110535 C-14.63219629 7.26697182 -14.22725701 4.26993696 -13.62701416 1.13371277 C-9.09410805 -0.00284279 -4.64149932 -0.00889508 0 0 Z M112.37298584 18.13371277 C115.01298584 18.13371277 117.65298584 18.13371277 120.37298584 18.13371277 C120.70298584 17.47371277 121.03298584 16.81371277 121.37298584 16.13371277 C116.35240294 15.63079896 116.35240294 15.63079896 112.37298584 18.13371277 Z M192.37298584 20.13371277 C189.50238415 23.99255438 188.9410634 26.85932162 188.93548584 31.63371277 C188.9161499 32.73715027 188.89681396 33.84058777 188.87689209 34.97746277 C189.61105525 39.6483591 192.00733734 42.00217544 195.56048584 44.94621277 C199.57509889 46.64127161 203.0800174 46.79999358 207.37298584 46.13371277 C211.48903131 44.22813616 213.01309624 42.76951773 215.24798584 38.82121277 C216.88891513 33.44261119 216.91104217 29.80451926 215.18548584 24.44621277 C213.19680407 20.81172539 211.97369683 19.16889724 208.37298584 17.13371277 C201.821855 15.23733279 197.76373411 16.03674408 192.37298584 20.13371277 Z M91.37298584 37.13371277 C90.00851551 40.82580897 90.04822022 42.42232142 91.68548584 46.00871277 C95.20945783 48.79510922 97.61989156 48.79461392 102.01751709 48.54777527 C104.53868891 48.24435272 104.53868891 48.24435272 107.06048584 46.57121277 C108.64643242 44.07218234 108.64643242 44.07218234 108.43548584 40.57121277 C107.67806177 37.06600068 107.67806177 37.06600068 105.18548584 35.19621277 C99.90392594 33.20095681 95.74963902 33.38229576 91.37298584 37.13371277 Z " fill="#52B74A" transform="translate(15.62701416015625,17.866287231445313)"/>
<path d="M0 0 C6.44983868 4.75675603 8.43888053 11.79096184 9.890625 19.3125 C10.25829459 22.51993343 10.20543186 25.67626128 10.1875 28.90234375 C5.25809672 29.0700157 0.32853251 29.23056922 -4.60131836 29.38452148 C-6.2784652 29.43790073 -7.95555124 29.49322691 -9.63256836 29.55053711 C-12.04267266 29.63256197 -14.45290861 29.70758956 -16.86328125 29.78125 C-17.61337967 29.80828506 -18.36347809 29.83532013 -19.13630676 29.86317444 C-22.33482554 29.95493513 -24.74933252 29.92339958 -27.8125 28.90234375 C-27.8125 25.60234375 -27.8125 22.30234375 -27.8125 18.90234375 C-24.93719919 17.94391015 -23.52200069 17.83577988 -20.58203125 18.0234375 C-19.77958984 18.07177734 -18.97714844 18.12011719 -18.15039062 18.16992188 C-17.31701172 18.22599609 -16.48363281 18.28207031 -15.625 18.33984375 C-14.78001953 18.39205078 -13.93503906 18.44425781 -13.06445312 18.49804688 C-10.98013701 18.62758064 -8.89626818 18.76427552 -6.8125 18.90234375 C-7.24175781 17.78988281 -7.67101562 16.67742188 -8.11328125 15.53125 C-8.35473877 14.90549072 -8.59619629 14.27973145 -8.8449707 13.63500977 C-9.84331172 11.52955831 -9.84331172 11.52955831 -13 9.83984375 C-17.56038523 8.71843754 -20.56192303 8.94496745 -24.8125 10.90234375 C-28.30182432 14.16655037 -28.66606372 17.9676952 -29.015625 22.5859375 C-29.16316318 30.202064 -29.16316318 30.202064 -25.8125 36.90234375 C-21.45904277 39.87061004 -18.01922506 40.45042007 -12.8125 39.90234375 C-8.80876547 38.50103666 -5.52344181 37.25115422 -2.8125 33.90234375 C1.23170651 35.68179462 4.64828487 38.29764048 8.1875 40.90234375 C6.79442831 46.165059 3.57843225 48.97505558 -0.8125 51.90234375 C-8.91687457 56.06321039 -18.28032043 55.98748452 -27 53.90234375 C-34.15929285 51.44674089 -39.83180962 46.35079466 -43.3125 39.65234375 C-46.84912931 31.72767436 -47.14914762 22.23086983 -44.5625 13.96484375 C-41.40983785 5.9664231 -36.07377773 -0.45271933 -28.125 -3.97265625 C-18.24918462 -7.16271654 -8.70207409 -5.27000608 0 0 Z " fill="#010101" transform="translate(478.8125,24.09765625)"/>
<path d="M0 0 C16.5 0 33 0 50 0 C50 19.14 50 38.28 50 58 C36 59 36 59 34 58 C34 43.48 34 28.96 34 14 C28.06 14.33 22.12 14.66 16 15 C16.01571045 16.26183105 16.0314209 17.52366211 16.04760742 18.82373047 C16.10180307 23.49391323 16.13631221 28.16406807 16.16479492 32.83447266 C16.17990526 34.85795766 16.20039437 36.8814098 16.22631836 38.90478516 C16.26260328 41.80900165 16.27970355 44.71278615 16.29296875 47.6171875 C16.30845261 48.52556366 16.32393646 49.43393982 16.33988953 50.36984253 C16.34011612 51.21056305 16.34034271 52.05128357 16.34057617 52.91748047 C16.34723801 53.65916473 16.35389984 54.400849 16.36076355 55.16500854 C16.24171158 55.77055573 16.12265961 56.37610291 16 57 C12.49947109 59.33368594 11.00385663 59.24221979 6.875 59.1875 C5.79992187 59.18105469 4.72484375 59.17460938 3.6171875 59.16796875 C1 59 1 59 0 58 C-0.09376053 56.18944975 -0.1174411 54.37522799 -0.11352539 52.56225586 C-0.11344986 51.40112778 -0.11337433 50.23999969 -0.11329651 49.04368591 C-0.10813522 47.780168 -0.10297394 46.51665009 -0.09765625 45.21484375 C-0.0962413 43.92888809 -0.09482635 42.64293243 -0.09336853 41.31800842 C-0.08954418 37.89356557 -0.07971462 34.46916491 -0.06866455 31.04473877 C-0.05844864 27.55261822 -0.05381582 24.06049067 -0.04882812 20.56835938 C-0.03862247 13.71220228 -0.01905077 6.85616115 0 0 Z " fill="#000000" transform="translate(376,19)"/>
<path d="M0 0 C16.5 0 33 0 50 0 C50 19.14 50 38.28 50 58 C39 59 39 59 34 58 C34 43.48 34 28.96 34 14 C27.73 14 21.46 14 15 14 C15 28.52 15 43.04 15 58 C10.05 58 5.1 58 0 58 C-0.84682894 38.54899071 -0.94706373 19.46742107 0 0 Z " fill="#010000" transform="translate(254,19)"/>
<path d="M0 0 C1.98 0 3.96 0 6 0 C6 0.33 6 0.66 6 1 C7.093125 0.938125 8.18625 0.87625 9.3125 0.8125 C13 1 13 1 14.70918274 2.26094055 C16.27437806 4.3696571 16.3652139 5.40906496 16.34057617 8.01245117 C16.34023628 9.2133564 16.34023628 9.2133564 16.33988953 10.43852234 C16.32440567 11.29798965 16.30892181 12.15745697 16.29296875 13.04296875 C16.28872391 13.9265657 16.28447906 14.81016266 16.28010559 15.72053528 C16.26331043 18.54316661 16.22565697 21.36508441 16.1875 24.1875 C16.17245423 26.10090115 16.15876564 28.01431349 16.14648438 29.92773438 C16.11340419 34.61876459 16.0616163 39.30926131 16 44 C13.70858714 44.05384521 11.41681812 44.09272087 9.125 44.125 C7.84882813 44.14820313 6.57265625 44.17140625 5.2578125 44.1953125 C2 44 2 44 0 42 C-0.928125 42.495 -1.85625 42.99 -2.8125 43.5 C-9.01667718 46.13740325 -16.02421556 45.91342113 -22.375 43.8125 C-27.12768441 41.73259312 -29.93739121 38.57559235 -32.8125 34.3125 C-34.94556924 28.36235948 -34.99845999 22.52693032 -32.4375 16.6875 C-29.44767507 11.56651959 -25.91546121 8.85942369 -20.23046875 7.18359375 C-13.38195148 5.78575775 -7.69937269 6.07318927 -1 8 C-1.495 5.03 -1.495 5.03 -2 2 C-1.34 2 -0.68 2 0 2 C0 1.34 0 0.68 0 0 Z M-17 21 C-18.36447033 24.6920962 -18.32476562 26.28860865 -16.6875 29.875 C-13.16352801 32.66139646 -10.75309428 32.66090116 -6.35546875 32.4140625 C-3.83429693 32.11063995 -3.83429693 32.11063995 -1.3125 30.4375 C0.27344658 27.93846957 0.27344658 27.93846957 0.0625 24.4375 C-0.69492407 20.93228791 -0.69492407 20.93228791 -3.1875 19.0625 C-8.4690599 17.06724404 -12.62334682 17.24858299 -17 21 Z " fill="#010101" transform="translate(124,34)"/>
<path d="M0 0 C10.56 0 21.12 0 32 0 C32.84964745 4.24823725 33.16499805 7.71005077 33 12 C32 13 32 13 29.71484375 13.09765625 C28.34005859 13.08025391 28.34005859 13.08025391 26.9375 13.0625 C26.01839844 13.05347656 25.09929687 13.04445313 24.15234375 13.03515625 C23.44207031 13.02355469 22.73179687 13.01195312 22 13 C22.09363611 16.93309734 22.19975145 20.86564085 22.31738281 24.7980957 C22.37444092 26.7929536 22.42164442 28.7880854 22.46875 30.78320312 C22.50742187 32.03681641 22.54609375 33.29042969 22.5859375 34.58203125 C22.63306885 36.31803589 22.63306885 36.31803589 22.68115234 38.08911133 C22.79471033 41.19127028 22.79471033 41.19127028 25 44 C26.96361864 44.57748803 26.96361864 44.57748803 29.125 44.6875 C30.40375 44.790625 31.6825 44.89375 33 45 C33 49.62 33 54.24 33 59 C16.49760361 59.76458979 16.49760361 59.76458979 11 55 C6.43739134 49.03894472 5.87129658 43.24530422 5.90234375 35.94921875 C5.9037587 35.29041214 5.90517365 34.63160553 5.90663147 33.95283508 C5.912195 31.86434238 5.92474053 29.77595989 5.9375 27.6875 C5.94251972 26.26497551 5.9470818 24.84244934 5.95117188 23.41992188 C5.96215243 19.94657923 5.97939165 16.47330039 6 13 C4.02 13 2.04 13 0 13 C0 8.71 0 4.42 0 0 Z " fill="#010101" transform="translate(309,19)"/>
<path d="M0 0 C4.95 0 9.9 0 15 0 C15.8531399 3.41255961 16.12642869 5.83329127 16.12939453 9.28759766 C16.13254669 10.34194 16.13569885 11.39628235 16.13894653 12.48257446 C16.1369223 13.61496552 16.13489807 14.74735657 16.1328125 15.9140625 C16.13424759 17.66304337 16.13424759 17.66304337 16.13571167 19.44735718 C16.13639188 21.91021783 16.1345487 24.37308029 16.13037109 26.8359375 C16.12501102 30.61722814 16.13032646 34.39840051 16.13671875 38.1796875 C16.13605813 40.57031276 16.1347773 42.96093795 16.1328125 45.3515625 C16.13483673 46.48800201 16.13686096 47.62444153 16.13894653 48.7953186 C16.13579437 49.84335663 16.13264221 50.89139465 16.12939453 51.97119141 C16.12859894 52.89622467 16.12780334 53.82125793 16.12698364 54.77432251 C16 57 16 57 15 59 C10.05 59 5.1 59 0 59 C0 39.53 0 20.06 0 0 Z " fill="#000000" transform="translate(350,19)"/>
<path d="M0 0 C0.66 0.33 1.32 0.66 2 1 C4.33189345 1.26955833 6.66321507 1.44507377 9.00390625 1.62109375 C9.66261719 1.74613281 10.32132813 1.87117188 11 2 C12.15872325 4.3174465 12.10211894 5.60192597 12.0625 8.17578125 C12.05476563 9.00400391 12.04703125 9.83222656 12.0390625 10.68554688 C12.01319505 12.42513281 11.98715575 14.16471619 11.9609375 15.90429688 C11.95320313 16.73638672 11.94546875 17.56847656 11.9375 18.42578125 C11.92589844 19.18286377 11.91429687 19.93994629 11.90234375 20.7199707 C11.96177271 23.47609106 11.96177271 23.47609106 13 28 C16.3 28.66 19.6 29.32 23 30 C23.13392857 40.17857143 23.13392857 40.17857143 22 44 C19.79229195 44.08165496 17.58369575 44.13948488 15.375 44.1875 C13.53035156 44.23970703 13.53035156 44.23970703 11.6484375 44.29296875 C6.52407595 43.88148361 3.27557174 42.34643684 -0.25 38.625 C-5.50333488 30.74499768 -5.19884507 21.72541202 -5.5625 12.5625 C-5.60568359 11.54478516 -5.64886719 10.52707031 -5.69335938 9.47851562 C-5.79868582 6.98578972 -5.90081672 4.49297662 -6 2 C-2.25 0.875 -2.25 0.875 0 2 C0 1.34 0 0.68 0 0 Z " fill="#010101" transform="translate(158,34)"/>
<path d="M0 0 C68.97 0 137.94 0 209 0 C209 0.66 209 1.32 209 2 C208.1203508 2.0154612 208.1203508 2.0154612 207.22293091 2.03123474 C201.02403019 2.14086401 194.82523043 2.25529916 188.62646484 2.37231445 C186.32440336 2.41517113 184.02232 2.45687162 181.72021484 2.49731445 C178.37851408 2.5562343 175.03691862 2.61955233 171.6953125 2.68359375 C170.69452667 2.70030624 169.69374084 2.71701874 168.66262817 2.73423767 C163.33567788 2.84051909 158.02966272 3.04821283 152.71299362 3.38405132 C142.14354666 4.04395598 131.64036225 4.06124936 121.0546875 3.9140625 C119.18735234 3.8921839 117.32001204 3.87074 115.45266724 3.84970093 C111.56506713 3.80462024 107.67754775 3.75548861 103.79003906 3.703125 C98.88219378 3.63717649 93.97429526 3.5797266 89.06631374 3.52498055 C52.57149037 3.11372619 52.57149037 3.11372619 34.56811523 2.20898438 C24.73273119 1.72024586 14.92383119 1.66488465 5.13671875 2.87890625 C3 3 3 3 0 2 C0 1.34 0 0.68 0 0 Z " fill="#71AC6A" transform="translate(11,18)"/>
<path d="M0 0 C2.53798696 0.09095676 5.03326771 0.23715174 7.5625 0.4375 C11.2440625 0.7159375 11.2440625 0.7159375 15 1 C15 7.93 15 14.86 15 22 C9.72 22 4.44 22 -1 22 C-1.02683201 18.52078265 -1.0467567 15.04176961 -1.0625 11.5625 C-1.07087891 10.56927734 -1.07925781 9.57605469 -1.08789062 8.55273438 C-1.09111328 7.60849609 -1.09433594 6.66425781 -1.09765625 5.69140625 C-1.10289307 4.81685791 -1.10812988 3.94230957 -1.11352539 3.04125977 C-1 1 -1 1 0 0 Z " fill="#010101" transform="translate(68,56)"/>
<path d="M0 0 C2.70348448 0.09099676 5.3671735 0.23748601 8.0625 0.4375 C10.681875 0.623125 13.30125 0.80875 16 1 C15.67 7.93 15.34 14.86 15 22 C9.72 22 4.44 22 -1 22 C-1.02683201 18.52078265 -1.0467567 15.04176961 -1.0625 11.5625 C-1.07087891 10.56927734 -1.07925781 9.57605469 -1.08789062 8.55273438 C-1.09111328 7.60849609 -1.09433594 6.66425781 -1.09765625 5.69140625 C-1.10289307 4.81685791 -1.10812988 3.94230957 -1.11352539 3.04125977 C-1 1 -1 1 0 0 Z " fill="#010101" transform="translate(3,56)"/>
<path d="M0 0 C2.53541298 0.09086451 5.03554784 0.2370945 7.5625 0.4375 C8.62887695 0.51581055 8.62887695 0.51581055 9.71679688 0.59570312 C11.47821999 0.72574107 13.23916173 0.86226897 15 1 C15.98600987 5.10837446 16.13389122 8.96861834 16.125 13.1875 C16.12886719 15.03408203 16.12886719 15.03408203 16.1328125 16.91796875 C16 20 16 20 15 22 C10.05 22 5.1 22 0 22 C-0.19377038 18.52107646 -0.38031376 15.04203235 -0.5625 11.5625 C-0.61857422 10.56927734 -0.67464844 9.57605469 -0.73242188 8.55273438 C-0.78076172 7.60849609 -0.82910156 6.66425781 -0.87890625 5.69140625 C-0.9260376 4.81685791 -0.97316895 3.94230957 -1.02172852 3.04125977 C-1 1 -1 1 0 0 Z " fill="#010102" transform="translate(35,56)"/>
<path d="M0 0 C5.28 0 10.56 0 16 0 C16 5.61 16 11.22 16 17 C10.72 17 5.44 17 0 17 C0 11.39 0 5.78 0 0 Z " fill="#020202" transform="translate(315,0)"/>
<path d="M0 0 C4.95 0 9.9 0 15 0 C15.98008601 5.98941452 15.84560134 10.98683494 15 17 C10.05 17 5.1 17 0 17 C0 11.39 0 5.78 0 0 Z " fill="#020101" transform="translate(350,0)"/>
<path d="M0 0 C4.95 0 9.9 0 15 0 C15 5.61 15 11.22 15 17 C10.05 17 5.1 17 0 17 C0 11.39 0 5.78 0 0 Z " fill="#040403" transform="translate(154,0)"/>
<path d="M0 0 C22.11 0 44.22 0 67 0 C67 0.66 67 1.32 67 2 C66.1203508 2.0154612 66.1203508 2.0154612 65.22293091 2.03123474 C59.02403019 2.14086401 52.82523043 2.25529916 46.62646484 2.37231445 C44.32440336 2.41517113 42.02232 2.45687162 39.72021484 2.49731445 C36.37851408 2.5562343 33.03691862 2.61955233 29.6953125 2.68359375 C28.69452667 2.70030624 27.69374084 2.71701874 26.66262817 2.73423767 C21.34971565 2.84023901 16.05840978 3.04749751 10.75600052 3.38584328 C-0.10877655 4.06907646 -10.90791545 4.04220089 -21.7890625 3.87890625 C-23.71389102 3.85452337 -25.6387265 3.83068437 -27.56356812 3.80735779 C-32.56441339 3.74532737 -37.56513119 3.67604337 -42.56585693 3.60510254 C-47.69488858 3.53367411 -52.8240087 3.46930734 -57.953125 3.40429688 C-67.96884729 3.27633366 -77.98444889 3.14068593 -88 3 C-88 2.67 -88 2.34 -88 2 C-44.44 1.505 -44.44 1.505 0 1 C0 0.67 0 0.34 0 0 Z " fill="#67AF60" transform="translate(153,18)"/>
<path d="M0 0 C1.52287125 -0.00043808 1.52287125 -0.00043808 3.07650757 -0.00088501 C6.42039644 0.00050438 9.76406038 0.01604739 13.10791016 0.03173828 C15.43103921 0.03546979 17.75416984 0.03831611 20.07730103 0.04031372 C26.18304817 0.04793926 32.28869973 0.06757858 38.39440918 0.08972168 C44.62832344 0.1102033 50.86225318 0.1193204 57.09619141 0.12939453 C69.32149375 0.15082541 81.54672525 0.18494842 93.77197266 0.22705078 C94.89697266 2.53955078 94.89697266 2.53955078 95.77197266 5.22705078 C95.11197266 6.21705078 94.45197266 7.20705078 93.77197266 8.22705078 C93.11039222 10.27289157 93.11039222 10.27289157 92.64697266 12.41455078 C92.35822266 13.67267578 92.06947266 14.93080078 91.77197266 16.22705078 C91.44197266 16.22705078 91.11197266 16.22705078 90.77197266 16.22705078 C90.57749979 11.3652291 91.13177491 7.78602562 92.77197266 3.22705078 C84.36611151 3.20387575 75.96026372 3.18610935 67.55437851 3.17523861 C63.65114971 3.17002109 59.74794278 3.16294394 55.84472656 3.15161133 C52.07758621 3.14074231 48.31046689 3.13476542 44.54331207 3.13217354 C43.10641397 3.13032654 41.66951701 3.12671983 40.23262787 3.12132072 C38.21938704 3.11405716 36.20612503 3.11364227 34.19287109 3.11352539 C33.04703552 3.11130478 31.90119995 3.10908417 30.72064209 3.10679626 C28.21326129 3.20905387 26.15681589 3.49176281 23.77197266 4.22705078 C23.77197266 3.56705078 23.77197266 2.90705078 23.77197266 2.22705078 C18.82355265 2.29578939 13.87598895 2.38368547 8.92822266 2.48950195 C7.24439981 2.52279513 5.56046418 2.55081334 3.87646484 2.57348633 C1.45833179 2.60695283 -0.95876359 2.65926114 -3.37646484 2.71533203 C-4.5093544 2.72491692 -4.5093544 2.72491692 -5.66513062 2.73469543 C-8.01448635 2.76685396 -8.01448635 2.76685396 -11.22802734 3.22705078 C-12.21802734 4.71205078 -12.21802734 4.71205078 -13.22802734 6.22705078 C-14.21802734 5.89705078 -15.20802734 5.56705078 -16.22802734 5.22705078 C-16.22802734 4.23705078 -16.22802734 3.24705078 -16.22802734 2.22705078 C-10.75405802 -0.05878801 -5.82395544 -0.04403957 0 0 Z " fill="#5A8E55" transform="translate(96.22802734375,31.77294921875)"/>
<path d="M0 0 C0.99 0.33 1.98 0.66 3 1 C2.566875 1.42667969 2.13375 1.85335937 1.6875 2.29296875 C-3.06209399 7.62526756 -3.85872737 11.98898876 -3.53125 19.0625 C-3.17535695 22.24314773 -3.17535695 22.24314773 -0.6875 25.1875 C4.64004051 28.78049244 7.61170098 29.79853738 14 29 C16.40083438 27.64114884 16.40083438 27.64114884 18 26 C18.66 26 19.32 26 20 26 C22.01167675 20.21642935 22.22084624 15.09781001 22 9 C22.66 8.67 23.32 8.34 24 8 C25.85870479 22.21194281 25.85870479 22.21194281 22 28 C21.34 28 20.68 28 20 28 C19.79375 28.61875 19.5875 29.2375 19.375 29.875 C17.37964957 32.95872339 15.53813024 33.18952133 12 34 C8.4921875 33.49609375 8.4921875 33.49609375 4.875 32.4375 C3.67617187 32.10621094 2.47734375 31.77492188 1.2421875 31.43359375 C-2.45084478 29.80065056 -3.87032899 28.39541888 -6 25 C-8.51672577 18.48933986 -8.64613452 11.48360233 -6 5 C-4.12930735 2.58035765 -2.70206654 1.59918224 0 0 Z " fill="#64A55B" transform="translate(209,34)"/>
<path d="M0 0 C8.03196908 -0.04632222 16.06388243 -0.08186855 24.09595203 -0.10362434 C27.8254906 -0.11406556 31.55493783 -0.12823083 35.28442383 -0.15087891 C38.88298631 -0.17259539 42.4814609 -0.18456608 46.08008385 -0.18975449 C47.45362418 -0.1934524 48.82715966 -0.20067345 50.20066261 -0.21146011 C52.12306662 -0.22595829 54.04555891 -0.22681678 55.96801758 -0.22705078 C57.06277908 -0.231492 58.15754059 -0.23593323 59.28547668 -0.24050903 C62 0 62 0 65 2 C64.38549484 1.99777939 63.77098969 1.99555878 63.13786316 1.99327087 C56.69681382 1.97101282 50.25577555 1.95600843 43.81469727 1.94506836 C41.41625524 1.94006387 39.01781624 1.93325825 36.61938477 1.92456055 C33.15640516 1.91232387 29.69346616 1.90673269 26.23046875 1.90234375 C25.17168015 1.89718246 24.11289154 1.89202118 23.02201843 1.88670349 C17.04244301 1.8862608 11.20959076 2.18007742 5.26924133 2.88233948 C3 3 3 3 0 2 C0 1.34 0 0.68 0 0 Z " fill="#6BA866" transform="translate(11,18)"/>
<path d="M0 0 C0.66 0.33 1.32 0.66 2 1 C2 7.6 2 14.2 2 21 C-1.0979597 22.54897985 -4.26216552 21.83239539 -7.625 21.5625 C-8.33140625 21.51029297 -9.0378125 21.45808594 -9.765625 21.40429688 C-11.51079987 21.27458793 -13.25545725 21.13795046 -15 21 C-9.93115836 17.11388808 -9.15667785 17 -2 17 C-1.34 11.39 -0.68 5.78 0 0 Z " fill="#679F60" transform="translate(17,34)"/>
<path d="M0 0 C0.66 0.99 1.32 1.98 2 3 C-6.36632364 10.55009695 -14.93411988 12.52888398 -26 12 C-29.0625 11.5 -29.0625 11.5 -31 11 C-31 10.34 -31 9.68 -31 9 C-27.04 9 -23.08 9 -19 9 C-18.67 8.34 -18.34 7.68 -18 7 C-15.33333333 7.66666667 -12.66666667 8.33333333 -10 9 C-10 8.34 -10 7.68 -10 7 C-9.4225 6.7525 -8.845 6.505 -8.25 6.25 C-5.69728947 4.83182749 -4.02214391 3.08954871 -2 1 C-1.34 0.67 -0.68 0.34 0 0 Z " fill="#60A55A" transform="translate(239,68)"/>
<path d="M0 0 C3.96 0 7.92 0 12 0 C12.33 5.94 12.66 11.88 13 18 C16.96 18 20.92 18 25 18 C24.67 18.99 24.34 19.98 24 21 C19.38 21 14.76 21 10 21 C9.67 14.73 9.34 8.46 9 2 C6.03 1.67 3.06 1.34 0 1 C0 0.67 0 0.34 0 0 Z " fill="#72AB6B" transform="translate(24,33)"/>
<path d="M0 0 C0.99 0.33 1.98 0.66 3 1 C2.57847656 1.391875 2.15695313 1.78375 1.72265625 2.1875 C-4.44890415 8.92539183 -3.97895884 16.33104005 -4 25 C-4.66 25 -5.32 25 -6 25 C-7.91615109 18.07237682 -8.78307713 11.81914138 -6 5 C-4.12930735 2.58035765 -2.70206654 1.59918224 0 0 Z " fill="#5CA154" transform="translate(209,34)"/>
<path d="M0 0 C1.72206188 2.99126319 2.24179923 5.10685713 2.1953125 8.546875 C2.18886719 9.39121094 2.18242188 10.23554687 2.17578125 11.10546875 C2.15902344 11.97816406 2.14226563 12.85085937 2.125 13.75 C2.11597656 14.63816406 2.10695313 15.52632812 2.09765625 16.44140625 C2.07414577 18.62788058 2.04128499 20.81380094 2 23 C1.11006348 22.76228882 1.11006348 22.76228882 0.20214844 22.51977539 C-2.77063345 21.81810658 -5.70493251 21.65065472 -8.75 21.4375 C-9.92046875 21.35371094 -11.0909375 21.26992188 -12.296875 21.18359375 C-13.18890625 21.12300781 -14.0809375 21.06242187 -15 21 C-15 20.67 -15 20.34 -15 20 C-8.565 19.505 -8.565 19.505 -2 19 C-1.93941406 17.79601562 -1.87882812 16.59203125 -1.81640625 15.3515625 C-1.73200268 13.77602923 -1.64735459 12.20050904 -1.5625 10.625 C-1.50352539 9.43390625 -1.50352539 9.43390625 -1.44335938 8.21875 C-1.11328125 2.2265625 -1.11328125 2.2265625 0 0 Z " fill="#5BA351" transform="translate(50,34)"/>
<path d="M0 0 C1.22589844 -0.00257812 2.45179687 -0.00515625 3.71484375 -0.0078125 C4.98199219 -0.00007813 6.24914062 0.00765625 7.5546875 0.015625 C9.46701172 0.00402344 9.46701172 0.00402344 11.41796875 -0.0078125 C12.64128906 -0.00523438 13.86460938 -0.00265625 15.125 0 C16.23891113 0.00225586 17.35282227 0.00451172 18.50048828 0.00683594 C21.35300375 0.25885014 23.01255814 0.78550991 25.4296875 2.265625 C24.44049316 2.28020752 23.45129883 2.29479004 22.43212891 2.30981445 C18.76785831 2.3677147 15.10420765 2.44494652 11.44042969 2.52807617 C9.85361785 2.5613648 8.26668647 2.58938447 6.6796875 2.61206055 C4.40052266 2.64553578 2.12245709 2.6978436 -0.15625 2.75390625 C-0.86776215 2.76029617 -1.57927429 2.7666861 -2.31234741 2.77326965 C-4.5303581 2.80572148 -4.5303581 2.80572148 -7.5703125 3.265625 C-8.5603125 4.750625 -8.5603125 4.750625 -9.5703125 6.265625 C-10.5603125 5.935625 -11.5503125 5.605625 -12.5703125 5.265625 C-12.5703125 4.275625 -12.5703125 3.285625 -12.5703125 2.265625 C-8.23268278 0.61825818 -4.6316753 0.00936097 0 0 Z " fill="#629759" transform="translate(92.5703125,31.734375)"/>
<path d="M0 0 C6.79569974 0.34849742 11.67160131 4.28144036 16.76953125 8.4453125 C18 10 18 10 18 14 C16.0625 13.6875 16.0625 13.6875 14 13 C13.67 12.01 13.34 11.02 13 10 C12.34 10 11.68 10 11 10 C11 9.01 11 8.02 11 7 C10.01 7 9.02 7 8 7 C8 6.01 8 5.02 8 4 C6.865625 3.71125 5.73125 3.4225 4.5625 3.125 C3.386875 2.75375 2.21125 2.3825 1 2 C0.67 1.34 0.34 0.68 0 0 Z " fill="#5DA357" transform="translate(226,20)"/>
<path d="M0 0 C0.66 0 1.32 0 2 0 C1.34 3.3 0.68 6.6 0 10 C-4.95 10 -9.9 10 -15 10 C-15.33 9.01 -15.66 8.02 -16 7 C-11.05 6.67 -6.1 6.34 -1 6 C-0.67 4.02 -0.34 2.04 0 0 Z " fill="#659A5E" transform="translate(83,45)"/>
<path d="M0 0 C5.61 0 11.22 0 17 0 C17 0.99 17 1.98 17 3 C5.53795591 3.86230656 -5.54654751 4.01427032 -17 3 C-17 2.67 -17 2.34 -17 2 C-8.585 1.505 -8.585 1.505 0 1 C0 0.67 0 0.34 0 0 Z " fill="#5FA558" transform="translate(153,18)"/>
<path d="M0 0 C1.125 2.3125 1.125 2.3125 2 5 C1.01 6.485 1.01 6.485 0 8 C-0.66158043 10.04584079 -0.66158043 10.04584079 -1.125 12.1875 C-1.558125 14.0746875 -1.558125 14.0746875 -2 16 C-2.33 16 -2.66 16 -3 16 C-3.2062504 10.84374012 -2.69930719 8.09792156 -1 3 C-6.28 2.67 -11.56 2.34 -17 2 C-17 1.67 -17 1.34 -17 1 C-14.9168207 0.83141902 -12.83344956 0.66520745 -10.75 0.5 C-9.58984375 0.4071875 -8.4296875 0.314375 -7.234375 0.21875 C-4.82731342 0.05595356 -2.41256049 0 0 0 Z " fill="#659F5F" transform="translate(190,32)"/>
<path d="M0 0 C2.62527189 -0.05382106 5.24944713 -0.09358313 7.875 -0.125 C8.62136719 -0.14175781 9.36773437 -0.15851562 10.13671875 -0.17578125 C12.09194461 -0.1933959 14.04742021 -0.10320189 16 0 C16.66 0.66 17.32 1.32 18 2 C17.625 4.125 17.625 4.125 17 6 C16.34 5.01 15.68 4.02 15 3 C11.94080357 2.67256668 11.94080357 2.67256668 8.5 2.875 C2.17012448 3.08506224 2.17012448 3.08506224 0 2 C0 1.34 0 0.68 0 0 Z " fill="#56A54D" transform="translate(50,32)"/>
<path d="M0 0 C0.33 1.32 0.66 2.64 1 4 C1.66 4 2.32 4 3 4 C3 4.66 3 5.32 3 6 C3.66 6.33 4.32 6.66 5 7 C5 7.99 5 8.98 5 10 C5.928125 10.433125 5.928125 10.433125 6.875 10.875 C9 12 9 12 11 14 C7.28115772 14 6.63852271 13.1259934 3.9375 10.6875 C3.24527344 10.07261719 2.55304688 9.45773438 1.83984375 8.82421875 C0 7 0 7 -2 4 C-2 3.01 -2 2.02 -2 1 C-1.34 0.67 -0.68 0.34 0 0 Z " fill="#61A559" transform="translate(192,61)"/>
<path d="M0 0 C3.69183057 3.18839913 4.81847636 6.53924847 5.4140625 11.33203125 C5.51847656 13.05486328 5.51847656 13.05486328 5.625 14.8125 C5.69976562 15.97394531 5.77453125 17.13539062 5.8515625 18.33203125 C5.90054688 19.21246094 5.94953125 20.09289062 6 21 C2.77367464 17.15193485 3 14.9842537 3 10 C2.04788888 7.97676387 1.05226728 5.97300116 0 4 C0 2.68 0 1.36 0 0 Z " fill="#4C8148" transform="translate(244,32)"/>
<path d="M0 0 C0 0.66 0 1.32 0 2 C-1.87945312 1.98259766 -1.87945312 1.98259766 -3.796875 1.96484375 C-5.44791517 1.95546284 -7.09895696 1.94636296 -8.75 1.9375 C-9.575 1.92912109 -10.4 1.92074219 -11.25 1.91210938 C-12.04921875 1.90888672 -12.8484375 1.90566406 -13.671875 1.90234375 C-14.4050293 1.89710693 -15.13818359 1.89187012 -15.89355469 1.88647461 C-18.0461849 2.0024891 -19.9314135 2.40926729 -22 3 C-22 2.34 -22 1.68 -22 1 C-22.66 0.67 -23.32 0.34 -24 0 C-20.9378174 -0.19533059 -17.87553679 -0.38153284 -14.8125 -0.5625 C-13.51602539 -0.64661133 -13.51602539 -0.64661133 -12.19335938 -0.73242188 C-7.95250921 -0.9761489 -4.14202181 -1.15770796 0 0 Z " fill="#55794F" transform="translate(142,33)"/>
<path d="M0 0 C1.13471754 3.40415262 0.77072847 5.53172191 0 9 C-0.23077258 11.36845546 -0.4364787 13.73687526 -0.62109375 16.109375 C-0.74613281 16.73328125 -0.87117187 17.3571875 -1 18 C-1.66 18.33 -2.32 18.66 -3 19 C-3.33 15.37 -3.66 11.74 -4 8 C-3.34 7.67 -2.68 7.34 -2 7 C-1.26924352 4.6859378 -0.59861742 2.35171131 0 0 Z " fill="#59AA52" transform="translate(190,38)"/>
<path d="M0 0 C0.33 0 0.66 0 1 0 C2.19287411 3.87684087 3 6.91621923 3 11 C2.21882813 10.76990234 2.21882813 10.76990234 1.421875 10.53515625 C-1.63278515 9.86017489 -4.63015971 9.65588882 -7.75 9.4375 C-8.92046875 9.35371094 -10.0909375 9.26992188 -11.296875 9.18359375 C-12.63492188 9.09271484 -12.63492188 9.09271484 -14 9 C-14 8.67 -14 8.34 -14 8 C-7.565 7.505 -7.565 7.505 -1 7 C-0.67 4.69 -0.34 2.38 0 0 Z " fill="#4A7441" transform="translate(49,46)"/>
<path d="M0 0 C-0.62759865 2.92879371 -1.58622659 5.36095629 -3 8 C-4.32 7.67 -5.64 7.34 -7 7 C-7 5.02 -7 3.04 -7 1 C-2.25 0 -2.25 0 0 0 Z " fill="#65A85B" transform="translate(9,18)"/>
<path d="M0 0 C0.825 0.309375 1.65 0.61875 2.5 0.9375 C-0.64068723 2.81617592 -2.52419073 3.10442782 -6.125 2.5625 C-6.90101563 2.45164062 -7.67703125 2.34078125 -8.4765625 2.2265625 C-9.47816406 2.08347656 -9.47816406 2.08347656 -10.5 1.9375 C-11.16 1.9375 -11.82 1.9375 -12.5 1.9375 C-12.83 0.9475 -13.16 -0.0425 -13.5 -1.0625 C-9.44186828 -3.09156586 -4.15937531 -1.2626675 0 0 Z " fill="#5DA355" transform="translate(225.5,33.0625)"/>
<path d="M0 0 C0.33 0 0.66 0 1 0 C1.02505615 0.62044189 1.0501123 1.24088379 1.07592773 1.88012695 C1.19196721 4.69112397 1.31465759 7.50179241 1.4375 10.3125 C1.47681641 11.28896484 1.51613281 12.26542969 1.55664062 13.27148438 C1.59853516 14.20927734 1.64042969 15.14707031 1.68359375 16.11328125 C1.72025146 16.97735596 1.75690918 17.84143066 1.79467773 18.73168945 C1.92747354 21.1647826 1.92747354 21.1647826 3 24 C1.35 24.33 -0.3 24.66 -2 25 C-1.34 24.67 -0.68 24.34 0 24 C0 16.08 0 8.16 0 0 Z " fill="#5CAF53" transform="translate(3,29)"/>
<path d="M0 0 C1.07894531 0.03480469 2.15789063 0.06960937 3.26953125 0.10546875 C4.35621094 0.13253906 5.44289063 0.15960938 6.5625 0.1875 C7.80966797 0.23970703 7.80966797 0.23970703 9.08203125 0.29296875 C8.75203125 1.28296875 8.42203125 2.27296875 8.08203125 3.29296875 C3.46203125 3.29296875 -1.15796875 3.29296875 -5.91796875 3.29296875 C-2.91796875 0.29296875 -2.91796875 0.29296875 0 0 Z " fill="#5FA256" transform="translate(39.91796875,50.70703125)"/>
<path d="M0 0 C1.31571603 0.2547514 2.62760376 0.52934141 3.9375 0.8125 C4.66839844 0.96332031 5.39929688 1.11414063 6.15234375 1.26953125 C6.76207031 1.51058594 7.37179688 1.75164062 8 2 C8.33 2.99 8.66 3.98 9 5 C7.35 4.67 5.7 4.34 4 4 C3.67 4.66 3.34 5.32 3 6 C1.35 5.01 -0.3 4.02 -2 3 C-1.34 2.01 -0.68 1.02 0 0 Z " fill="#58B251" transform="translate(204,73)"/>
<path d="M0 0 C-0.33 0.66 -0.66 1.32 -1 2 C-2.92578125 2.37890625 -2.92578125 2.37890625 -5.3125 2.5625 C-8.31776628 2.80590173 -11.0911893 3.1945856 -14 4 C-14.66 3.01 -15.32 2.02 -16 1 C-10.65097076 0.40801257 -5.39115154 -0.14187241 0 0 Z " fill="#56A54F" transform="translate(34,31)"/>
<path d="M0 0 C4.29 0 8.58 0 13 0 C13 0.66 13 1.32 13 2 C11.39679026 2.19551338 9.79237014 2.38111983 8.1875 2.5625 C7.29417969 2.66691406 6.40085937 2.77132813 5.48046875 2.87890625 C3 3 3 3 0 2 C0 1.34 0 0.68 0 0 Z " fill="#6AA65D" transform="translate(11,18)"/>
<path d="M0 0 C0.33 0 0.66 0 1 0 C0.53411505 5.70709064 -0.93757784 9.15939723 -4 14 C-5.2277183 10.31684509 -4.6026666 9.37044582 -3.125 5.875 C-2.75632813 4.98554687 -2.38765625 4.09609375 -2.0078125 3.1796875 C-1 1 -1 1 0 0 Z " fill="#699560" transform="translate(248,54)"/>
<path d="M0 0 C0.66 0.99 1.32 1.98 2 3 C0.1875 5 0.1875 5 -2 7 C-2.99 7 -3.98 7 -5 7 C-5.33 6.01 -5.66 5.02 -6 4 C-5.01 3.67 -4.02 3.34 -3 3 C-1.33289654 1.50014391 -1.33289654 1.50014391 0 0 Z " fill="#5DAC53" transform="translate(239,68)"/>
<path d="M0 0 C2.12157386 3.79870734 2.24663053 6.64286068 2 11 C1 12 1 12 -2.0625 12.0625 C-3.031875 12.041875 -4.00125 12.02125 -5 12 C-4.35546875 11.77570312 -3.7109375 11.55140625 -3.046875 11.3203125 C-0.75611148 10.17110544 -0.75611148 10.17110544 -0.390625 7.6171875 C-0.34421875 6.71226563 -0.2978125 5.80734375 -0.25 4.875 C-0.19328125 3.96492188 -0.1365625 3.05484375 -0.078125 2.1171875 C-0.05234375 1.41851562 -0.0265625 0.71984375 0 0 Z " fill="#5DAD53" transform="translate(81,40)"/>
<path d="M0 0 C3.96 0 7.92 0 12 0 C12 1.98 12 3.96 12 6 C11.01 6.495 11.01 6.495 10 7 C9.67 5.35 9.34 3.7 9 2 C6.03 1.67 3.06 1.34 0 1 C0 0.67 0 0.34 0 0 Z " fill="#66A461" transform="translate(24,33)"/>
<path d="M0 0 C0.66 0 1.32 0 2 0 C1.34 3.3 0.68 6.6 0 10 C-1.32 9.67 -2.64 9.34 -4 9 C-3.34 9 -2.68 9 -2 9 C-1.34 6.03 -0.68 3.06 0 0 Z " fill="#65885F" transform="translate(83,45)"/>
<path d="M0 0 C0.804375 0.4640625 0.804375 0.4640625 1.625 0.9375 C4.3984957 2.17827439 7.00042837 2.5909675 10 3 C10 3.33 10 3.66 10 4 C6.7 4 3.4 4 0 4 C0 2.68 0 1.36 0 0 Z " fill="#59B34F" transform="translate(36,48)"/>
<path d="M0 0 C0.99 0.33 1.98 0.66 3 1 C1.35 2.65 -0.3 4.3 -2 6 C-2.33 5.01 -2.66 4.02 -3 3 C-2.01 2.01 -1.02 1.02 0 0 Z " fill="#5AA654" transform="translate(209,34)"/>
<path d="M0 0 C-0.33 1.65 -0.66 3.3 -1 5 C-2.32 4.67 -3.64 4.34 -5 4 C-5 3.01 -5 2.02 -5 1 C-3 0 -3 0 0 0 Z " fill="#63A85A" transform="translate(85,33)"/>
<path d="" fill="#000000" transform="translate(0,0)"/>
<path d="" fill="#000000" transform="translate(0,0)"/>
</svg>
